{"title":"Project X [2012] Extended BrRip x264 AAC-V3nom","uid":7744772,"size":358420490,"categoryP":"video","categoryS":"movies","magnet":"?xt=urn:btih:dc753e0ae7a50268ce1d8e40d83419e6049e1f87&amp;dn=Project+X+%5B2012%5D+Extended+BrRip+x264+AAC-V3nom&amp;tr=udp%3A%2F%2Ftracker.openbittorrent.com%3A80&amp;tr=udp%3A%2F%2Fopen.demonii.com%3A1337&amp;tr=udp%3A%2F%2Ftracker.coppersurfer.tk%3A6969&amp;tr=udp%3A%2F%2Fexodus.desync.com%3A6969","seeders":2,"leechers":0,"uploader":"V3nom","files":-1,"time":1350730022,"description":"[img]http://imageshack.us/a/img29/1326/projectxv.jpg[/img]\n\n[b][size=200][color=black]PLOT[/color][/size][/b]\n\n[code]3 high school seniors throw a birthday party to make a name for themselves. As the night progresses, things spiral out of control as word of the party spreads.  [/code]\n\n[b][size=200][color=black]IMDB[/color][/size][/b]\n\n[code]http://www.imdb.com/title/tt1636826/[/code]\n\n[b][size=200][color=black]MOVIE INFO[/color][/size][/b]\n\n[code]Project X [2012] Extended BrRip x264 AAC-V3nom\n\nFormat                           : MPEG-4\nFormat profile                   : Base Media / Version 2\nCodec ID                         : mp42\nFile size                        : 341 MiB\nDuration                         : 1h 32mn\nOverall bit rate                 : 513 Kbps\nEncoded date                     : UTC 2012-10-18 16:59:12\nTagged date                      : UTC 2012-10-18 17:21:11\n\nVideo\nID                               : 1\nFormat                           : AVC\nFormat/Info                      : Advanced Video Codec\nFormat profile                   : &lt;a class=&quot;__cf_email__&quot; href=&quot;/cdn-cgi/l/email-protection&quot; data-cfemail=&quot;feb39f9790beb2cdd0ce&quot;&gt;[email&amp;#160;protected]&lt;/a&gt;&lt;script cf-hash='f9e31' type=&quot;text/javascript&quot;&gt;\n/* &lt;![CDATA[ */!function(){try{var t=&quot;currentScript&quot;in document?document.currentScript:function(){for(var t=document.getElementsByTagName(&quot;script&quot;),e=t.length;e--;)if(t[e].getAttribute(&quot;cf-hash&quot;))return t[e]}();if(t&amp;&amp;t.previousSibling){var e,r,n,i,c=t.previousSibling,a=c.getAttribute(&quot;data-cfemail&quot;);if(a){for(e=&quot;&quot;,r=parseInt(a.substr(0,2),16),n=2;a.length-n;n+=2)i=parseInt(a.substr(n,2),16)^r,e+=String.fromCharCode(i);e=document.createTextNode(e),c.parentNode.replaceChild(e,c)}}}catch(u){}}();/* ]]&gt; */&lt;/script&gt;\nFormat settings, CABAC           : Yes\nFormat settings, ReFrames        : 4 frames\nFormat settings, GOP             : M=4, N=48\nCodec ID                         : avc1\nCodec ID/Info                    : Advanced Video Coding\nDuration                         : 1h 32mn\nBit rate mode                    : Variable\nBit rate                         : 400 Kbps\nWidth                            : 640 pixels\nHeight                           : 352 pixels\nDisplay aspect ratio             : 16:9\nFrame rate mode                  : Variable\nFrame rate                       : 23.976 fps\nMinimum frame rate               : 23.974 fps\nMaximum frame rate               : 23.981 fps\nColor space                      : YUV\nChroma subsampling               : 4:2:0\nBit depth                        : 8 bits\nScan type                        : Progressive\nBits/(Pixel*Frame)               : 0.074\nStream size                      : 264 MiB (77%)\nWriting library                  : x264 core 120\nEncoded date                     : UTC 2012-10-18 16:59:12\nTagged date                      : UTC 2012-10-18 17:21:04\n\nAudio\nID                               : 2\nFormat                           : AAC\nFormat/Info                      : Advanced Audio Codec\nFormat profile                   : LC\nCodec ID                         : 40\nDuration                         : 1h 32mn\nBit rate mode                    : Variable\nBit rate                         : 112 Kbps\nMaximum bit rate                 : 125 Kbps\nChannel(s)                       : 2 channels\nChannel positions                : Front: L R\nSampling rate                    : 48.0 KHz\nCompression mode                 : Lossy\nStream size                      : 74.5 MiB (22%)\nEncoded date                     : UTC 2012-10-18 16:59:12\nTagged date                      : UTC 2012-10-18 17:21:03[/code]\n\n[b][size=200][color=black]SOURCE[/color][/size][/b]\n\n[code]Project X[2012]EXTENDED BRRip XviD-ETRG (Thanks)[/code]\n\n[b][size=200][color=black]SCREENSHOTS[/color][/size][/b]\n\n[img]http://imageshack.us/a/img268/3672/projectx2012extendedbrr.jpg[/img]\n\n[img]http://kastatic.com/i2/users/133df62bbf28e62494bb17fe11078f1a.gif[/img][img]http://kastatic.com/i2/users/133df62bbf28e62494bb17fe11078f1a.gif[/img]\n\n","torrent":{"xt":"urn:btih:dc753e0ae7a50268ce1d8e40d83419e6049e1f87","amp;dn":"Project+X+%5B2012%5D+Extended+BrRip+x264+AAC-V3nom","amp;tr":["udp%3A%2F%2Ftracker.openbittorrent.com%3A80","udp%3A%2F%2Fopen.demonii.com%3A1337","udp%3A%2F%2Ftracker.coppersurfer.tk%3A6969","udp%3A%2F%2Fexodus.desync.com%3A6969"],"infoHash":"dc753e0ae7a50268ce1d8e40d83419e6049e1f87","infoHashBuffer":{"type":"Buffer","data":[220,117,62,10,231,165,2,104,206,29,142,64,216,52,25,230,4,158,31,135]},"announce":[],"urlList":[]}}